<?xml version="1.0" encoding="utf-8"?>
<!-- Generator: Adobe Illustrator 16.0.0, SVG Export Plug-In . SVG Version: 6.00 Build 0)  -->
<!DOCTYPE svg PUBLIC "-//W3C//DTD SVG 1.1//EN" "http://www.w3.org/Graphics/SVG/1.1/DTD/svg11.dtd">
<svg version="1.1" id="Layer_1" xmlns="http://www.w3.org/2000/svg" xmlns:xlink="http://www.w3.org/1999/xlink" x="0px" y="0px"
	 width="400px" height="400px" viewBox="0 0 400 400" enable-background="new 0 0 400 400" xml:space="preserve">
<path fill="#010101" d="M314.891,232.307c1.281-0.203,2.891-0.393,3.775,0.599c3.486,3.325,8.109,5.729,13.043,7.357
	c1.566,0.647,3.551,1.003,4.543,2.288c0.5,1.771,0.033,3.614-0.252,5.395c-1.363,6.655-4.604,13.066-9.459,18.519
	c-1.455,1.732-3.68,2.884-5.178,4.586c-2.373,2.6-4.143,5.516-6.02,8.358c2.809,1.324,5.682,2.545,8.689,3.543
	c0.908,0.374,2.08,0.639,2.541,1.449c-0.189,2.089-0.354,4.221-1.201,6.218c-1.604,4.009-4.254,7.675-7.17,11.134
	c-3.797,4.416-8.154,8.516-12.834,12.318c-3.25,2.769-6.939,5.18-10.096,8.032c-8.828,7.534-16.971,15.622-24.383,24.119
	c-4.312,5.089-8.537,10.313-11.301,16.109c-4.199,7.752-10.092,14.854-17.041,21.118c-7.082,6.268-15.664,11.686-25.699,14.293
	c-4.633,1.197-12.303,1.805-17.764,1.683c-4.01-0.091-4.465-0.163-6.693-0.322c-9.775-1.043-18.662-5.186-26.035-10.414
	c-10.361-7.54-18.529-17.041-24.029-27.451c-2.513-4.339-5.797-8.334-9.225-12.222c-6.828-7.673-14.437-14.854-22.354-21.773
	c-1.855-1.679-3.856-3.237-5.787-4.855c-2.01-1.685-4.225-3.193-6.162-4.93c-5.329-4.733-10.053-9.901-14.494-15.209
	c-2.682-3.29-5.39-6.583-7.545-10.134c-0.926-1.42-1.126-3.049-1.837-4.537c-0.128-0.44-0.518-0.946-0.111-1.353
	c0.44-0.492,1.171-0.718,1.816-0.982c3.089-1.094,6.077-2.378,8.938-3.823c-2.068-3.009-4.049-6.102-6.738-8.785
	c-1.18-1.212-2.842-2.026-4.025-3.237c-3.16-3.105-5.61-6.66-7.521-10.379c-1.953-3.928-3.372-8.071-3.737-12.316
	c-0.042-0.882-0.099-2.001,0.934-2.543c2.019-1.107,4.361-1.741,6.495-2.688c3.392-1.416,6.526-3.273,9.082-5.592
	c0.918-0.669,1.663-1.841,3.086-1.713c2.547,0.092,5.125,0.892,6.895,2.431c2.586,2.163,3.703,5.191,4.076,8.141
	c0.247,1.589,0.021,3.186-0.273,4.754c-2.043,0.54-4.086,1.099-6.068,1.765c6.785,6.78,13.193,13.973,17.443,22.069
	c1.363,2.672,2.454,5.456,2.939,8.328c0.23,1.685,0.082,3.385,0.11,5.078c-2.661,1.104-5.425,2.022-8.129,3.065
	c7.239,7.622,16.082,14.062,24.897,20.423c2.33,1.694,4.277,3.704,6.236,5.678c7.372,7.543,14.195,15.445,20.975,23.352
	c6.865,8.178,13.674,16.088,19.785,24.652c2.05,3.059,4.318,6.083,7.408,8.513c4.516,3.803,9.906,6.564,16.336,7.36
	c2.311,0.317,4.644,0.11,6.961,0.139c5.328,0.052,10.504-1.582,14.9-3.97c4.59-2.538,8.969-5.983,11.68-9.939
	c5.402-8.328,11.633-15.963,17.879-23.88c6.506-8.081,13.127-16.118,20.123-23.929c3.516-3.827,6.93-7.785,11.426-10.892
	c7.939-6.018,15.877-12.151,22.275-19.329c-2.727-0.825-5.371-1.82-8.037-2.774c-1.064-4.538,0.492-9.152,2.459-13.38
	c4.027-8.224,10.285-15.558,16.9-22.514c-1.984-0.654-4.039-1.146-6.07-1.693c-0.971-3.888-0.422-8.16,2.162-11.578
	C309.84,234.125,312.225,232.745,314.891,232.307 M312.543,234.189c-2.037,1.02-3.438,2.717-4.26,4.521
	c-1.096,2.567-1.537,5.416-0.76,8.082c1.891,0.551,3.836,0.984,5.715,1.59c2.131-2.143,3.342-4.791,4.092-7.453
	c0.576-2.536,1.256-5.256,0.037-7.747C315.697,233.227,313.99,233.475,312.543,234.189 M82.55,235.14
	c-1.07,1.637-0.75,3.559-0.52,5.328c0.612,3.511,1.981,7.097,4.832,9.828c1.95-0.449,3.809-1.159,5.756-1.633
	c0.566-2.178,0.217-4.424-0.42-6.562c-0.746-2.308-2.264-4.59-4.82-5.846C85.933,235.501,84.197,235.365,82.55,235.14
	 M318.541,241.631c-0.812,2.439-1.656,4.995-3.637,6.993c-1.887,1.676-3.557,3.498-5.193,5.33
	c-3.188,3.467-6.104,7.113-8.695,10.899c-2.723,4.025-5.152,8.241-6.404,12.747c-0.541,2.259-1.111,4.621-0.404,6.903
	c2.105-1.087,3.678-2.795,4.488-4.717c0.521-1.184,0.699-2.477,1.533-3.559c1-1.379,2.744-2.371,4.676-2.647
	c1.133-0.148,2.342,0.22,3.035,0.975c1.725,1.753,4.02,3.036,6.311,4.239c2.676-4.083,5.17-8.476,9.639-11.48
	c3.273-2.937,5.582-6.516,7.494-10.146c2.254-4.494,3.82-9.308,3.803-14.189c-2.307-1.372-5.104-1.966-7.584-3.07
	c-2.975-1.214-5.674-2.818-8.133-4.64C319.42,237.406,319.24,239.562,318.541,241.631 M75.054,240.788
	c-2.744,1.581-5.914,2.523-8.863,3.792c-0.514,0.289-1.359,0.496-1.332,1.119c-0.13,1.26,0.174,2.511,0.396,3.751
	c1.089,5.396,3.591,10.566,7.065,15.22c1.52,2.03,3.209,4.012,5.447,5.56c4.014,2.854,6.269,6.894,8.938,10.565
	c2.3-1.281,4.558-2.681,6.29-4.482c1.06-1.147,3.117-0.999,4.566-0.493c2.133,0.714,3.535,2.399,4.077,4.185
	c0.769,2.498,2.53,4.895,5.327,6.185c0.298-2.619-0.062-5.255-0.955-7.773c-1.785-5.151-4.951-9.89-8.414-14.397
	c-3.754-4.759-7.859-9.356-12.539-13.541c-1.819-1.857-2.697-4.18-3.533-6.422c-0.803-2.175-1.219-4.442-1.124-6.712
	C78.662,238.538,76.987,239.798,75.054,240.788 M301.924,276.176c-1.334,1.24-1.439,2.977-2.197,4.445
	c-0.781,1.697-2.223,3.109-3.799,4.349c2.006,0.638,4.012,1.271,5.996,1.938c1.525-1.725,2.877-3.566,4-5.488
	c0.9-1.512,1.238-3.2,1.389-4.869c0.033-0.747-0.398-1.686-1.404-1.822C304.385,274.495,302.893,275.267,301.924,276.176
	 M94.508,276.514c-0.445,0.538-1.037,1.094-0.944,1.801c0.123,2.042,0.75,4.096,2.057,5.85c1.109,1.508,2.107,3.105,3.549,4.421
	c2.079-0.462,4.012-1.315,5.998-1.999c-2.387-1.512-3.968-3.727-4.72-6.108c-0.431-1.505-1.557-2.918-3.278-3.62
	C96.343,276.518,95.399,276.572,94.508,276.514 M308.846,276.967c-0.404,4.678-3.703,8.717-7.195,12.251
	c-6.832,7.446-15.205,13.792-23.51,20.099c-2.389,1.643-4.221,3.729-6.17,5.697c-7.084,7.583-13.656,15.47-20.131,23.396
	c-6.412,7.927-12.703,15.92-18.471,24.174c-1.711,2.387-2.986,4.466-4.975,6.713c-2.816,3.32-7.055,6.134-11.266,8.239
	c-4.652,2.314-10.082,3.665-15.545,3.534c-2.672,0.093-5.354,0-7.961-0.492c-9.179-1.686-16.358-7.029-21.033-13.608
	c-4.646-6.838-9.93-13.062-15.213-19.569c-6.93-8.396-14.049-16.688-21.488-24.797c-3.438-3.666-6.812-7.395-10.707-10.747
	c-7.965-5.822-16.059-11.581-23.025-18.234c-3.217-3.132-6.268-6.425-8.469-10.116c-0.919-1.492-1.256-3.153-1.436-4.803
	c-4.744,3.498-10.463,5.898-16.229,8.048c0.804,1.592,1.001,3.345,1.972,4.887c2.271,3.687,5.077,7.133,7.903,10.542
	c4.223,4.932,8.623,9.78,13.582,14.233c2.386,2.054,4.933,3.973,7.425,5.934c4.209,3.562,8.412,7.138,12.379,10.883
	c7.945,7.471,15.697,15.175,21.854,23.739c2.359,3.209,3.849,6.773,6.098,10.027c2.678,4.029,5.771,7.884,9.275,11.472
	c5.994,6.278,13.238,11.892,21.844,15.689c6.07,2.66,12.914,4.284,19.833,4.12c4.789,0.2,5.759,0.016,8.769-0.072
	c8.809-0.266,16.381-3.205,23.459-7.391c8.1-4.83,14.84-11.062,20.43-17.848c3.113-3.874,5.977-7.906,8.072-12.224
	c1.926-3.76,4.449-7.277,7.131-10.694c6.717-8.378,14.395-16.197,22.502-23.686c3.793-3.403,7.572-6.832,11.805-9.877
	c7.793-5.958,15.059-12.518,20.383-20.127c2.334-3.459,4.406-7.237,4.396-11.266c0.123-0.622-0.797-0.722-1.289-0.978
	C318.494,282.294,313.297,280.044,308.846,276.967"/>
<path fill="#010101" d="M188.328,301.357c-15.186,5.115-18.48,7.475-18.867,7.905c-1.622,1.799,18.499-3.371,31.534-3.371
	c13.033,0,30.554,3.562,31.857,2.969c0.887-0.406-3.787-4.434-12.309-5.877c-5.182-0.878-10.104-3.884-11.035-5.056
	c-1.102-1.384-0.998-18.723-0.732-19.734c0.482-1.877,4.834-7.602,7.213-7.602c2.383,0,6.871,2.889,11.355,2.728
	c2.166-0.072,5.646-0.562,6.344-2.647c0.74-2.224-1.363-6.069-0.672-6.819c1.338-1.44,3.719,1.127,6.234,1.127
	c1.332,0,4.678-0.714,5.473-2.909c0.723-1.997-1.088-5.471-0.422-6.078c1.4-1.278,6.854-1.495,8.83-3.209
	c4.619-4.012-0.562-4.012-0.697-5.452c-0.146-1.443,5.303-5.134,1.318-8.825c-3.982-3.69-5.949,2.408-7.625,2.408
	c-1.688,0-0.031-2.729-3.242-2.789c-3.205-0.062-5.73,8.604-7.518,8.665c-1.791,0.06-0.787-1.914-2.785-1.866
	c-5.207,0.12-5.729,9.564-7.623,9.621c-1.887,0.068-1.049-2.22-2.992-2.158c-4.049,0.115-4.346,6.843-7.678,11.128
	c-2.055,2.645-4.652,3.551-5.514,3.551c-2.264,0-2.105-0.542-2.105-0.542s-0.051-13.233,0.213-14.137
	c0.264-0.907,2.729-4.152,3.988-4.152c1.268,0,9.834,0.478,11.457-1.393c1.631-1.861,0.744-4.087,1.314-4.629
	c0.58-0.538,5.473,0.486,7.311-2.223c1.838-2.708,0.314-5.175,1-6.194c0.682-1.026,6.041-0.847,5.934-5.119
	c-0.102-4.268-2.096-2.222-2.096-3.727c0-1.509,4.357-4.689,1.363-7.281c-3-2.588-5.574,2.286-6.787,2.228
	c-1.203-0.062-0.941-2.143-3.148-2.228c-4.939-0.18-3.576,7.942-5.199,7.942c-1.633,0-1.314-2.197-3.047-2.226
	c-3.785-0.061-2.686,9.805-4.371,9.926c-1.676,0.124-1.059-1.229-2.262-1.2c-2.832,0.057-2.52,10.102-3.779,11.369
	c-1.26,1.263-2.207,1.744-2.572,1.084c-0.369-0.667-1.264-9.93-0.631-11.013c0.631-1.08,6.355-6.675,6.412-10.647
	c0.055-3.967-3.26-2.347-3.363-3.795c-0.109-1.44,2.84-2.824,2.84-6.014c0-3.188-3.311-2.162-3.473-3.667
	c-0.162-1.504,1.582-0.902,1.582-3.551c0-4.512-4.102-2.646-4.84-3.189c-0.74-0.541,1.629-5.896-3.256-5.896
	c-4.887,0-2.904,4.921-3.52,5.595c-1.107,1.203-6.207-1.68-5.993,2.949c0.137,3.005,1.472,3.606,1.573,4.749
	c0.106,1.144-3.624,1.144-3.678,3.796c-0.053,2.647,2.995,3.787,2.995,5.228c0,1.448-2.731,1.512-2.731,4.096
	s5.518,8.421,6.205,9.508c0.68,1.083,0.837,11.609,0.1,12.452c-0.734,0.843-2.473-0.843-2.891-1.805
	c-0.418-0.959-0.578-6.438-1.416-7.879c-0.841-1.448-3.102-0.244-3.521-0.967c-0.424-0.719,0.841-9.443-2.159-9.685
	c-1.518-0.124-1.469,1.264-2.574,1.264c-1.103,0-1.627-8.604-4.466-8.726c-2.839-0.116-2.049,2.35-3.521,2.35
	c-1.468,0-4.151-6.261-7.302-2.71c-3.156,3.55,0.682,5.656,0.682,7.281c0,1.624-2.178,1.685-2.207,4.207
	c-0.055,4.156,4.15,4.273,4.783,5.48c0.626,1.199-1.191,1.625-1.316,3.306c-0.418,5.777,7.83,2.948,8.83,4.032
	c0.994,1.074-0.475,2.764-0.475,4.087c0,3.491,10.039,1.448,11.617,2.352c1.574,0.902,3.783,3.828,4.891,5.283
	c1.101,1.452,1.363,13.127,0.103,14.029c-0.468,0.333-3.529,1.144-5.784-1.685c-2.088-2.624-3.601-7.109-5.307-10.291
	c-1.414-2.64-3.146-4.252-3.833-4.272c-2.422-0.056-2.051,2.528-3.472,2.528c-1.418,0-7.621-11.611-9.51-11.611
	c-1.896,0-1.74,3.009-3.474,3.009s-4.046-7.821-7.093-7.882c-3.051-0.057-2.104,3.313-4.256,3.369
	c-2.156,0.061-3.84-3.852-6.73-0.12c-2.893,3.73,2.314,6.438,2.156,7.943c-0.159,1.505-2.365,1.621-2.419,4.694
	c-0.024,1.512,1.749,3.121,4.101,3.605c2.406,0.503,5.405-0.128,5.988,0.727c1.16,1.682-0.768,2.338-0.734,4.689
	c0.054,3.792,3.149,5.268,5.1,5.235c3.1-0.064,7.037-4.212,8.198-2.651c1.158,1.569-1.419,3.134-1.206,5.235
	c0.207,2.109,2.573,5.176,6.566,5.119c3.993-0.063,6.676-2.472,11.248-2.472s8.249,4.032,9.036,5.596
	c0.792,1.564,0.58,17.152-0.153,18.591C193.445,296.904,192.116,300.086,188.328,301.357"/>
<path fill="#010101" d="M146.731,260.406c2.7,3.714,1.97,9.231-1.563,10.306c-2.25,0.686-1.646-0.137-3.211,0.165
	c-3.124,0.598-7.537-0.113-8.302-1.806c-0.843-1.865,0.952-6.339,3.085-7.983c0.6-0.457,0.242-1.204,0.842-1.725
	C139.785,257.458,144.164,256.875,146.731,260.406 M140.61,264.418c-0.862-1.97-1.241-2.607-2.694-2.531
	c-1.454,0.08-4.18,4.857-3.059,6.623c1.125,1.761,5.967,1.72,6.606,1.323C142.109,269.433,141.419,266.267,140.61,264.418"/>
<path fill="#010101" d="M159.4,230.201c-2.891,3.57-8.406,4.305-10.363,1.164c-1.244-1.985-0.296-1.62-0.988-3.053
	c-1.393-2.87-1.854-7.306-0.416-8.489c1.583-1.296,6.373-0.723,8.514,0.911c0.598,0.456,1.217-0.084,1.881,0.366
	C160.433,222.728,162.137,226.804,159.4,230.201 M153.933,225.332c1.675-1.345,2.198-1.875,1.74-3.262
	c-0.455-1.384-5.77-2.775-7.186-1.231c-1.411,1.544-0.113,6.213,0.437,6.727C149.479,228.079,152.355,226.595,153.933,225.332"/>
<path fill="#010101" d="M253.975,258.416c2.566-3.526,6.947-2.944,9.146-1.042c0.596,0.524,0.24,1.268,0.84,1.724
	c2.131,1.646,3.932,6.119,3.09,7.983c-0.77,1.701-5.178,2.403-8.305,1.806c-1.564-0.301-0.963,0.521-3.213-0.16
	C251.998,267.651,251.275,262.135,253.975,258.416 M260.094,262.428c-0.809,1.854-1.502,5.015-0.857,5.415
	c0.637,0.402,5.48,0.442,6.609-1.322c1.125-1.767-1.604-6.544-3.061-6.62C261.33,259.82,260.955,260.463,260.094,262.428"/>
<path fill="#010101" d="M243.816,232.607c-2.74-3.396-1.035-7.473,1.371-9.102c0.662-0.445,1.283,0.092,1.881-0.365
	c2.139-1.633,6.928-2.209,8.51-0.91c1.443,1.184,0.986,5.62-0.41,8.488c-0.697,1.433,0.256,1.067-0.994,3.053
	C252.219,236.913,246.705,236.179,243.816,232.607 M249.283,227.738c1.572,1.268,4.449,2.748,5.002,2.234
	c0.555-0.518,1.85-5.182,0.445-6.728c-1.416-1.541-6.734-0.152-7.188,1.231C247.084,225.865,247.607,226.395,249.283,227.738"/>
<path fill="#010101" d="M183.98,212.257c-3.658,2.776-9.192,2.162-10.336-1.355c-0.729-2.23,0.1-1.642-0.227-3.202
	c-0.664-3.112-0.045-7.536,1.636-8.338c1.845-0.882,6.356,0.827,8.041,2.926c0.473,0.587,1.21,0.214,1.741,0.812
	C186.784,205.248,187.458,209.617,183.98,212.257 M179.843,206.215c1.953-0.894,2.584-1.283,2.478-2.742
	c-0.111-1.45-4.942-4.081-6.685-2.917c-1.741,1.155-1.602,5.997-1.186,6.63C174.868,207.82,178.012,207.065,179.843,206.215"/>
<path fill="#010101" d="M217.801,213.417c-3.48-2.636-2.807-7.001-0.855-9.163c0.527-0.59,1.268-0.222,1.736-0.807
	c1.686-2.101,6.197-3.805,8.047-2.927c1.68,0.807,2.301,5.226,1.635,8.339c-0.33,1.564,0.496,0.975-0.227,3.21
	C226.99,215.582,221.453,216.193,217.801,213.417 M221.934,207.382c1.832,0.852,4.98,1.598,5.393,0.965
	c0.416-0.635,0.555-5.473-1.188-6.633c-1.74-1.159-6.572,1.473-6.684,2.921C219.352,206.095,219.984,206.479,221.934,207.382"/>
<path fill="#010101" d="M92.16,85.158c0-0.729,0.588-1.243,1.242-1.236h213.182c0.648,0,1.262,0.492,1.262,1.236v107.741
	c0,111.488-106.917,173.133-107.219,173.309c-0.305,0.182-0.893,0.206-1.249,0C199.021,365.998,92.16,304.11,92.16,192.898V85.158
	 M189.496,143.031c-2.48,1.872-5.568,2.686-8.604,3.097c-1.374,0.217-2.791,0.248-4.12,0.683c-0.939,0.274-1.527,1.098-2.112,1.823
	c-0.555,0.744-1.28,1.336-1.808,2.09c-0.309,0.555,0.126,1.176,0.58,1.496c1.225,0.905,2.674,1.423,4.035,2.079
	c2.724,1.324,5.837,1.011,8.762,0.863c-0.621,0.674-1.292,1.308-1.929,1.967c-0.312,0.357-0.741,0.74-0.628,1.27
	c0.525,0.67,1.428,0.797,2.213,0.913c1.438,0.185,2.973,0.192,4.289-0.481c1.682-0.796,3.379-1.573,5.159-2.103
	c1.708-0.489,3.499-0.235,5.244-0.152c-0.69,0.854-1.485,1.696-1.661,2.835c2.518-0.046,5.04-0.067,7.551-0.301
	c1.459-0.163,2.994-0.41,4.215-1.291c0.891-0.656,1.174-1.782,1.549-2.768c2.846-0.321,5.242,1.47,7.859,2.247
	c3.279,1.293,6.871,0.544,10.133-0.405c0.891-0.356,1.713-1.316,1.533-2.319c-0.51-0.808-1.561-0.949-2.371-1.302
	c-1.473-0.471-2.869-1.222-4.426-1.368c-2.07-0.161-4.051,0.885-6.129,0.534c-1.293-0.189-2.342-0.997-3.412-1.695
	c-1.186-0.81-2.557-1.442-3.449-2.625c-1.211-1.599-2.053-3.514-3.672-4.771c-2.916-2.356-6.508-4.321-10.376-4.081
	C194.734,139.395,191.964,141.181,189.496,143.031 M177.654,149.824c0.317-0.694,0.679-1.536,1.524-1.688
	c0.833-0.032,1.646,0.202,2.46,0.375C180.471,149.275,179.14,150.49,177.654,149.824 M96.554,194.212
	c0,104.559,97.027,163.889,103.473,167.715c6.446-3.826,103.467-63.156,103.467-167.715v-23.365H96.554V194.212 M271.625,92.638
	c-1.594,0.381-2.863,1.454-4.184,2.367c0.084,4.531,0.229,9.061,0.26,13.587c2.736-0.451,5.559-0.432,8.279,0.133
	c1.561,0.283,2.949,1.2,4.559,1.269c0.107-3.644-0.275-7.279-0.256-10.923c0.018-1.545-0.027-3.089-0.113-4.63
	C277.715,92.744,274.57,91.837,271.625,92.638 M280.82,94.338c0.078,2.416,0.199,4.822,0.277,7.24
	c0.074,2.775-0.086,5.578,0.299,8.341c3.621-2.128,8.016-1.63,11.908-0.592c0.246-4.966,0.082-9.948,0.104-14.923
	c-1.203-0.788-2.439-1.643-3.904-1.824C286.527,92.158,283.41,92.803,280.82,94.338 M294.172,94.851
	c0.092,3.279-0.162,6.554-0.086,9.831c0.01,1.569-0.084,3.14-0.1,4.712c1.609,0.977,2.943,2.383,3.912,3.994
	c0-5.871,0.012-11.733,0.002-17.6C296.637,95.574,295.381,95.279,294.172,94.851 M263.865,95.53
	c0.01,5.692-0.014,11.383,0.014,17.081c0.902-0.971,1.775-1.967,2.594-3.008c0.619-0.747,0.439-1.792,0.475-2.687
	c-0.178-3.928-0.057-7.863-0.105-11.794C265.838,95.212,264.854,95.353,263.865,95.53 M268.234,109.208
	c-0.572,0.007-0.926,0.499-1.264,0.886c-0.844,1.04-1.686,2.084-2.506,3.14c4.074,0.067,8.141-0.008,12.215,0.046
	c-0.338-1.36,0.932-2.146,1.748-2.975C275.25,108.887,271.643,108.739,268.234,109.208 M282.514,110.146
	c1.135,0.686,1.795,1.846,2.146,3.093c4.115,0.008,8.23,0.071,12.346-0.027c-1.15-1.11-2.018-2.745-3.701-3.108
	C289.816,109.095,285.924,108.54,282.514,110.146 M277.25,112.483c0.842,1.426,2.432,2.493,4.139,2.07
	c1.176-0.115,1.693-1.278,2.322-2.11c-0.709-1.484-2.426-1.968-3.951-1.838C278.678,110.817,277.979,111.743,277.25,112.483
	 M109.912,93.108c-1.595,0.383-2.869,1.454-4.186,2.366c0.077,4.531,0.226,9.059,0.258,13.588c2.736-0.45,5.562-0.43,8.282,0.133
	c1.561,0.279,2.945,1.199,4.56,1.27c0.106-3.644-0.275-7.279-0.258-10.923c0.014-1.544-0.025-3.089-0.115-4.63
	C115.995,93.21,112.856,92.308,109.912,93.108 M119.107,94.808c0.076,2.415,0.199,4.826,0.274,7.237
	c0.081,2.782-0.083,5.585,0.3,8.344c3.624-2.124,8.02-1.631,11.91-0.592c0.247-4.966,0.08-9.945,0.101-14.919
	c-1.204-0.788-2.437-1.643-3.905-1.829C124.809,92.629,121.69,93.275,119.107,94.808 M132.456,95.322
	c0.095,3.278-0.157,6.547-0.089,9.827c0.014,1.568-0.076,3.141-0.096,4.716c1.607,0.977,2.939,2.383,3.916,3.992
	c-0.004-5.869,0.001-11.736,0.001-17.597C134.919,96.044,133.666,95.75,132.456,95.322 M102.152,96.001
	c0.004,5.69-0.016,11.382,0.01,17.078c0.907-0.967,1.781-1.964,2.596-3.005c0.621-0.747,0.438-1.789,0.473-2.69
	c-0.172-3.924-0.051-7.858-0.106-11.79C104.125,95.684,103.138,95.824,102.152,96.001 M106.517,109.68
	c-0.576,0.007-0.924,0.497-1.266,0.887c-0.842,1.041-1.685,2.08-2.502,3.138c4.071,0.066,8.139-0.012,12.211,0.046
	c-0.334-1.36,0.935-2.144,1.756-2.975C113.533,109.358,109.927,109.211,106.517,109.68 M120.795,110.616
	c1.138,0.686,1.8,1.846,2.147,3.098c4.118,0.003,8.232,0.065,12.35-0.03c-1.154-1.109-2.017-2.747-3.701-3.108
	C128.098,109.564,124.205,109.009,120.795,110.616 M115.534,112.954c0.843,1.422,2.432,2.489,4.14,2.07
	c1.181-0.114,1.694-1.278,2.32-2.111c-0.705-1.483-2.426-1.968-3.951-1.836C116.964,111.286,116.256,112.21,115.534,112.954
	 M303.498,136.263L200.025,92.796L96.556,136.263v29.344l103.469-43.468l103.473,43.468V136.263z"/>
<path fill="#010101" d="M148.48,39.745c0.795,0,1.447,0.649,1.447,1.446c0,0.796-0.652,1.442-1.447,1.442
	c-0.797,0-1.443-0.646-1.443-1.442C147.037,40.394,147.683,39.745,148.48,39.745"/>
<path fill="#010101" d="M152.468,35.459c0.795,0,1.445,0.646,1.445,1.443c0,0.796-0.65,1.446-1.445,1.446
	c-0.799,0-1.443-0.65-1.443-1.446C151.025,36.105,151.669,35.459,152.468,35.459"/>
<path fill="#010101" d="M156.846,31.783c0.797,0,1.442,0.644,1.442,1.442c0,0.796-0.646,1.442-1.442,1.442
	c-0.795,0-1.446-0.646-1.446-1.442C155.4,32.427,156.051,31.783,156.846,31.783"/>
<path fill="#010101" d="M161.554,28.173c0.795,0,1.444,0.644,1.444,1.446c0,0.792-0.649,1.442-1.444,1.442
	c-0.799,0-1.444-0.65-1.444-1.442C160.11,28.816,160.755,28.173,161.554,28.173"/>
<path fill="#010101" d="M166.437,25.111c0.791,0,1.442,0.645,1.442,1.443c0,0.797-0.651,1.442-1.442,1.442
	c-0.795,0-1.447-0.645-1.447-1.442C164.99,25.755,165.642,25.111,166.437,25.111"/>
<path fill="#010101" d="M171.921,22.287c0.797,0,1.445,0.644,1.445,1.446c0,0.792-0.648,1.443-1.445,1.443s-1.447-0.651-1.447-1.443
	C170.474,22.931,171.125,22.287,171.921,22.287"/>
<path fill="#010101" d="M177.344,20.054c0.797,0,1.447,0.646,1.447,1.442s-0.65,1.442-1.447,1.442c-0.79,0-1.442-0.646-1.442-1.442
	S176.554,20.054,177.344,20.054"/>
<path fill="#010101" d="M182.75,18.57c0.795,0,1.441,0.644,1.441,1.442c0,0.796-0.646,1.443-1.441,1.443
	c-0.798,0-1.447-0.647-1.447-1.443C181.302,19.214,181.952,18.57,182.75,18.57"/>
<path fill="#010101" d="M250.434,39.745c0.797,0,1.441,0.649,1.441,1.446c0,0.796-0.645,1.442-1.441,1.442s-1.447-0.646-1.447-1.442
	C248.986,40.394,249.637,39.745,250.434,39.745"/>
<path fill="#010101" d="M246.443,35.459c0.797,0,1.439,0.646,1.439,1.443c0,0.796-0.643,1.446-1.439,1.446
	c-0.799,0-1.449-0.65-1.449-1.446C244.994,36.105,245.645,35.459,246.443,35.459"/>
<path fill="#010101" d="M242.066,31.783c0.795,0,1.441,0.644,1.441,1.442c0,0.796-0.646,1.442-1.441,1.442
	c-0.799,0-1.445-0.646-1.445-1.442C240.621,32.427,241.268,31.783,242.066,31.783"/>
<path fill="#010101" d="M237.355,28.173c0.803,0,1.445,0.644,1.445,1.446c0,0.792-0.643,1.442-1.445,1.442
	c-0.793,0-1.441-0.65-1.441-1.442C235.914,28.816,236.562,28.173,237.355,28.173"/>
<path fill="#010101" d="M232.473,25.109c0.799,0,1.449,0.645,1.449,1.446c0,0.792-0.65,1.443-1.449,1.443
	c-0.789,0-1.438-0.651-1.438-1.443C231.035,25.754,231.684,25.109,232.473,25.109"/>
<path fill="#010101" d="M226.99,22.287c0.803,0,1.445,0.644,1.445,1.446c0,0.792-0.643,1.443-1.445,1.443
	c-0.795,0-1.445-0.651-1.445-1.443C225.545,22.931,226.195,22.287,226.99,22.287"/>
<path fill="#010101" d="M221.564,20.054c0.795,0,1.445,0.646,1.445,1.442s-0.65,1.442-1.445,1.442c-0.793,0-1.443-0.646-1.443-1.442
	S220.771,20.054,221.564,20.054"/>
<path fill="#010101" d="M216.162,18.57c0.799,0,1.449,0.644,1.449,1.442c0,0.796-0.65,1.443-1.449,1.443
	c-0.801,0-1.441-0.647-1.441-1.443C214.721,19.214,215.361,18.57,216.162,18.57"/>
<path fill="#010101" d="M196.328,0.58c1.899-0.028,3.804-0.028,5.702,0c-0.273,1.623-0.73,3.212-0.998,4.836
	c1.348-0.53,2.658-1.129,4.006-1.686c0.008,1.874,0.016,3.739-0.016,5.604c-1.332-0.355-2.656-0.748-3.998-1.053
	c0.488,1.446,0.99,2.888,1.463,4.339c0.312,0.995,1.018,1.802,1.373,2.78c0.273,1.267,0.199,2.708-0.58,3.791
	c-0.33,0.462-0.711,0.889-1.094,1.316c1.318,0.37,2.594,0.889,3.75,1.624c1.516-1.614,3.482-3.187,5.816-3.112
	c0.465-0.01,0.924-0.005,1.393,0.007c-1.023,1.733-2.627,3.065-3.412,4.955c10.02,2.09,19.549,6.334,27.916,12.2
	c3.301,2.347,6.461,4.914,9.283,7.819c0.781,0.812,1.701,1.509,2.316,2.468c-0.193,0.837-0.604,1.605-0.945,2.386
	c-2.395,5.427-4.783,10.858-7.15,16.301c0.408,0.739,0.857,1.725,0.191,2.465c-0.521,0.864-1.627,0.592-2.477,0.679
	c-0.184,0.356-0.373,0.713-0.555,1.074c0.73,1,1.346,2.306,0.752,3.53c-0.439,1.222-1.82,1.533-2.973,1.598
	c-0.074,0.106-0.236,0.329-0.32,0.439c0.725,0.616,1.48,1.294,1.752,2.244c0.562,1.332,0.041,3.151-1.34,3.737
	c-0.834,0.4-1.77,0.174-2.607-0.061c-9.439-2.863-19.312-3.862-29.113-4.482c-2.33,0.046-4.657-0.497-6.985-0.136
	c-10.658,0.544-21.418,1.468-31.69,4.526c-1.032,0.29-2.235,0.651-3.206-0.003c-0.955-0.537-1.344-1.689-1.209-2.745
	c-0.035-1.446,1.307-2.305,1.902-3.496c-1.158-0.071-2.544-0.201-3.156-1.338c-0.83-1.199-0.326-2.736,0.631-3.688
	c-0.186-0.413-0.364-0.828-0.542-1.242c-0.542,0-1.087,0.004-1.626,0.012c-0.855-0.816-0.963-1.976-0.672-3.068
	c-2.688-6.257-5.49-12.471-8.188-18.728c10.381-11.458,24.562-19.218,39.61-22.542c-0.882-1.816-2.323-3.246-3.479-4.873
	c1.744-0.102,3.511,0.083,5.211,0.494c1.037,0.208,1.711,1.089,2.376,1.832c1.051-0.398,2.121-0.747,3.215-1.028
	c-0.826-0.914-1.551-1.999-1.668-3.265c-0.145-1.244,0.522-2.366,1.008-3.467c0.763-1.754,1.413-3.562,2.097-5.349
	c-1.509,0.168-3.015,0.419-4.504,0.728c-0.021-1.763-0.021-3.516-0.013-5.271c1.512,0.589,2.998,1.25,4.532,1.795
	C197.52,3.876,196.924,2.229,196.328,0.58 M198.445,12.998c-1.529,0.441-2.697,1.903-2.726,3.504
	c-0.185,1.979,1.44,3.895,3.429,4.03c2.245,0.296,4.426-1.785,4.229-4.042C203.258,14.158,200.716,12.256,198.445,12.998
	 M193.9,21.979c1.051,4.974,2.18,9.929,3.188,14.913c1.367,0.064,2.799,0.463,4.141,0.181c0.611-1.477,0.881-3.061,1.363-4.583
	c0.898-3.276,1.973-6.518,2.73-9.821c-1.033-0.83-2.348-1.299-3.639-1.511c-1.428,2.94-1.637,6.276-2.116,9.459
	c-0.172-3.312-0.369-6.781-2.078-9.729C196.256,21.138,195.052,21.495,193.9,21.979 M156.603,41.077
	c-0.508,0.444-1.06,0.872-1.396,1.463c-0.112,1.307,0.258,2.592,0.306,3.895c0.07,1.613-0.013,3.224,0.017,4.84
	c1.92-1.259,3.752-2.881,6.09-3.254c0.865,2,0.766,4.229,1.419,6.296c-2.144,0.712-4.703,1.27-5.978,3.32
	c0.459,0.513,0.885,1.121,1.568,1.348c2.497,0.867,5.176,0.949,7.793,0.891c1.463,0.004,2.985-0.264,4.208-1.114
	c1.357-0.94,2.845-2.046,3.271-3.729c0.234-1.709,0.317-3.699-1.022-5.004c-2.508-0.165-4.532,1.537-6.371,2.999
	c-0.475-2.039-1.15-4.33-0.104-6.302c0.621-1.213,2.029-1.515,3.217-1.873c0.426-0.186,1.107-0.25,1.088-0.85
	c0.201-1.612-0.072-3.288,0.441-4.86c0.299-0.992,0.942-1.816,1.569-2.626c2.221,1.705,3.417,4.358,4.282,6.946
	c1.184-0.332,2.45-0.738,3.668-0.318c2.418,0.667,3.803,2.981,4.91,5.051c-2.045,0.166-4.166,0.152-6.082,0.982
	c-0.537,0.226-0.912,0.682-1.305,1.098c0.223,1.003,0.234,2.042,0.4,3.061c0.342,1.326,1.703,2.05,2.961,2.293
	c2.368,0.631,4.842,0.176,7.195-0.33c2.383-0.621,4.883-1.562,6.439-3.578c1.098-1.277,0.879-3.136,1.848-4.487
	c-2.49,1.167-5.199,1.916-7.953,1.994c-0.465,0.09-0.447-0.518-0.518-0.807c-0.252-2.369-0.191-4.785,0.276-7.123
	c2.365,0.694,4.55,1.864,6.859,2.724c-0.939-2.161-2.19-4.242-2.608-6.582c-0.162-0.521,0.493-0.702,0.764-1.023
	c-1-3.975-2.44-7.846-4.141-11.576C177.561,27.39,166.087,33.066,156.603,41.077 M209.322,24.859
	c-1.711,3.728-3.082,7.605-4.168,11.56c0.453,0.321,0.92,0.736,0.717,1.363c-0.449,2.215-1.637,4.195-2.551,6.242
	c2.299-0.851,4.484-1.98,6.814-2.741c0.713,2.599,0.668,5.375,0.182,8.006c-2.881-0.189-5.777-0.758-8.359-2.095
	c1.109,1.179,0.689,3.007,1.75,4.21c1.736,2.251,4.564,3.25,7.232,3.895c2.09,0.398,4.279,0.933,6.398,0.37
	c1.127-0.259,2.422-0.694,2.93-1.854c0.496-1.227,0.604-2.635,0.32-3.931c-1.951-1.639-4.734-1.47-7.141-1.667
	c1.07-1.935,2.301-4.005,4.42-4.922c1.344-0.616,2.84-0.255,4.186,0.164c0.779-2.646,2.146-5.175,4.285-6.971
	c0.684,0.886,1.361,1.832,1.639,2.946c0.459,1.454,0.168,2.989,0.338,4.483c0.049,0.709,0.865,0.833,1.402,1.03
	c1.197,0.316,2.592,0.747,3.064,2.033c0.682,1.944,0.279,4.08-0.246,6.02c-1.637-1.199-3.273-2.729-5.385-2.943
	c-1.027-0.163-1.842,0.724-1.955,1.677c-0.248,1.603-0.436,3.529,0.736,4.836c0.936,1.042,1.992,2.023,3.258,2.653
	c1.977,0.907,4.215,0.62,6.328,0.636c2.164-0.148,4.439-0.411,6.271-1.669c-0.16-0.5-0.084-1.154-0.551-1.499
	c-1.486-1.194-3.32-1.864-5.154-2.304c0.535-2.128,0.445-4.408,1.422-6.417c2.297,0.514,4.127,2.051,6.035,3.324
	c-0.455-2.736,0.135-5.485,0.354-8.208c0.117-0.689-0.496-1.145-0.943-1.556C233.391,33.263,221.711,27.415,209.322,24.859
	 M173.132,60.401c-4.844,1.356-9.674,2.901-14.189,5.143c-1.31,0.432-0.291,2.696,0.9,2.015c10.566-4.273,21.736-7.354,33.158-7.978
	c3.443,0.07,6.905-0.177,10.334,0.204c6.451,0.341,12.891,1.122,19.207,2.45c5.529,1.173,10.992,2.771,16.146,5.118
	c0.332,0.13,0.678,0.266,1.033,0.319c0.777,0.227,1.139-0.677,1.596-1.12c-0.482-0.535-1.02-1.025-1.693-1.283
	c-5.711-2.46-11.76-4.045-17.834-5.323c-6.332-1.301-12.742-2.271-19.191-2.689c-3.004-0.342-6.022-0.129-9.038-0.195
	C186.655,57.417,179.802,58.582,173.132,60.401 M189.474,63.857c-1.524,0.435-2.095,2.518-1.114,3.72
	c0.627,0.819,1.718,1.012,2.698,0.979c5.683-0.046,11.364-0.014,17.051-0.014c0.777-0.008,1.625-0.057,2.225-0.616
	c0.994-0.78,1.178-2.374,0.311-3.323c-0.574-0.792-1.627-0.902-2.535-0.911c-5.688,0.009-11.374,0.017-17.064-0.004
	C190.516,63.701,189.978,63.709,189.474,63.857 M180.208,64.728c-1.419,0.25-2.839,0.462-4.256,0.706
	c-0.757,0.124-1.624,0.387-1.94,1.165c-0.691,1.18,0.25,2.927,1.658,2.895c1.595-0.079,3.169-0.473,4.76-0.674
	c0.828-0.161,1.819-0.23,2.374-0.953c0.693-0.814,0.531-2.154-0.313-2.799C181.882,64.469,180.972,64.618,180.208,64.728
	 M217.154,64.715c-1.553,0.463-1.801,2.755-0.434,3.604c1.391,0.603,2.967,0.565,4.436,0.905c1.107,0.158,2.408,0.634,3.385-0.168
	c1.045-0.816,0.926-2.631-0.277-3.249c-1.129-0.554-2.439-0.521-3.66-0.78C219.463,64.884,218.305,64.469,217.154,64.715
	 M166.27,68.337c-1.448,0.569-2.952,0.978-4.423,1.487c-0.783,0.238-1.399,0.967-1.475,1.791c0.028,0.822,0.462,1.709,1.287,1.985
	c0.988,0.397,2.004-0.195,2.943-0.465c1.285-0.51,2.794-0.752,3.756-1.832c0.609-0.58,0.174-1.438-0.174-2.025
	C167.816,68.628,167.051,67.938,166.27,68.337 M230.906,71.509c1.365,1.167,3.24,1.45,4.885,2.062
	c0.988,0.427,2.279,0.039,2.682-1.007c0.498-1.051-0.088-2.369-1.193-2.71c-1.709-0.595-3.463-1.069-5.129-1.775
	C231.043,68.707,229.66,70.368,230.906,71.509 M194.527,70.647c-10.138,0.514-20.254,2.202-29.936,5.275
	c-1.479,0.246-2.611,2.107-1.729,3.438c0.464,0.734,1.446,0.514,2.139,0.317c9.801-2.908,20.023-3.985,30.195-4.545
	c2.818-0.246,5.653-0.229,8.477-0.017c10.254,0.58,20.582,1.611,30.449,4.606c0.691,0.25,1.635,0.271,2.086-0.412
	c0.506-0.96,0.17-2.258-0.691-2.908c-1.01-0.694-2.213-1.039-3.367-1.45c-6.162-1.95-12.605-2.814-19.008-3.516
	C206.955,70.844,200.737,70.42,194.527,70.647"/>
<polygon fill="#010101" points="108.993,141.715 102.591,144.479 103.808,147.29 108.835,145.117 109.95,147.696 104.919,149.864 
	106.212,152.855 112.611,150.09 113.783,152.799 104.186,156.948 98.267,143.255 107.863,139.106 "/>
<path fill="#010101" d="M119.482,134.083l5.915,13.693l-2.681,1.16l-9.257-6.976c0.11,0.234,0.181,0.386,0.216,0.456
	c0.13,0.222,0.232,0.411,0.301,0.57l3.537,8.201l-2.449,1.059l-5.919-13.692l3.394-1.471l8.061,6.1
	c-0.212-0.381-0.361-0.678-0.451-0.883l-3.094-7.165L119.482,134.083z"/>
<path fill="#010101" d="M134.791,135.026l3.167,7.322l-1.438,0.623c-0.331-0.472-0.702-0.928-1.131-1.379
	c-0.441,1.6-1.403,2.729-2.892,3.363c-1.747,0.761-3.392,0.71-4.915-0.148c-1.527-0.854-2.729-2.295-3.604-4.32
	c-0.945-2.179-1.184-4.159-0.715-5.928c0.47-1.775,1.594-3.049,3.381-3.817c1.495-0.65,2.889-0.744,4.18-0.282
	c1.285,0.459,2.34,1.356,3.16,2.689l-2.821,1.698c-0.962-1.553-2.087-2.051-3.388-1.487c-0.855,0.37-1.328,1.04-1.428,2.012
	c-0.094,0.973,0.17,2.19,0.802,3.648c0.608,1.405,1.308,2.373,2.1,2.917c0.794,0.538,1.626,0.617,2.501,0.239
	c0.563-0.242,0.986-0.65,1.264-1.218c0.285-0.561,0.246-1.255-0.107-2.078l-2.532,1.093l-1.104-2.559L134.791,135.026z"/>
<rect x="130.985" y="132.304" transform="matrix(-0.3968 -0.9179 0.9179 -0.3968 70.367 314.2729)" fill="#010101" width="14.916" height="3.424"/>
<path fill="#010101" d="M149.484,121.119l5.915,13.692l-2.683,1.157l-9.256-6.974c0.107,0.235,0.181,0.384,0.219,0.455
	c0.127,0.223,0.23,0.411,0.297,0.572l3.541,8.2l-2.455,1.054l-5.915-13.691l3.395-1.466l8.058,6.1
	c-0.213-0.38-0.364-0.677-0.453-0.882l-3.095-7.165L149.484,121.119z"/>
<polygon fill="#010101" points="162.297,118.675 155.897,121.439 157.115,124.25 162.142,122.074 163.254,124.653 158.228,126.825 
	159.523,129.812 165.917,127.051 167.089,129.759 157.492,133.904 151.574,120.216 161.172,116.069 "/>
<polygon fill="#010101" points="173.186,113.968 166.787,116.731 168.001,119.542 173.029,117.369 174.142,119.949 169.115,122.117 
	170.41,125.107 176.805,122.344 177.978,125.05 168.38,129.2 162.46,115.508 172.061,111.36 "/>
<path fill="#010101" d="M180.085,117.698l2.342,5.426l-3.168,1.373l-5.918-13.693l5.91-2.55c1.086-0.473,2.014-0.72,2.783-0.748
	c0.771-0.028,1.524,0.209,2.257,0.709c0.726,0.498,1.277,1.172,1.64,2.014c0.708,1.643,0.442,3.159-0.805,4.548l5.099,4.978
	l-3.479,1.509l-4.406-4.539L180.085,117.698z M177.566,111.873l1.508,3.492l1.93-0.833c0.629-0.272,1.069-0.519,1.316-0.732
	c0.24-0.213,0.41-0.521,0.498-0.927c0.092-0.408,0.05-0.814-0.125-1.218c-0.166-0.38-0.424-0.674-0.775-0.878
	c-0.355-0.2-0.68-0.283-0.971-0.239c-0.291,0.046-0.803,0.219-1.521,0.532L177.566,111.873z"/>
<rect x="183.537" y="109.723" transform="matrix(-0.2725 -0.9622 0.9622 -0.2725 135.8233 325.5663)" fill="#010101" width="14.916" height="3.422"/>
<path fill="#010101" d="M206.932,102.478l0.088,14.916l-2.92,0.011l-5.79-10.035c0.008,0.254,0.016,0.419,0.025,0.502
	c0.028,0.254,0.045,0.467,0.045,0.645l0.053,8.927l-2.668,0.016l-0.094-14.912l3.698-0.026l5.033,8.768
	c-0.047-0.436-0.07-0.77-0.07-0.996l-0.049-7.801L206.932,102.478z"/>
<path fill="#010101" d="M221.326,114.949l-3.24,7.287l-1.436-0.636c0.127-0.56,0.205-1.151,0.254-1.767
	c-1.486,0.76-2.959,0.809-4.438,0.152c-1.748-0.776-2.814-2.019-3.221-3.724c-0.404-1.702-0.156-3.56,0.738-5.578
	c0.971-2.168,2.266-3.681,3.889-4.54c1.619-0.854,3.314-0.885,5.092-0.093c1.494,0.662,2.506,1.623,3.033,2.884
	c0.537,1.255,0.594,2.641,0.162,4.148l-3.154-0.929c0.496-1.753,0.088-2.924-1.203-3.499c-0.848-0.383-1.664-0.276-2.449,0.311
	c-0.779,0.592-1.488,1.611-2.139,3.062c-0.619,1.396-0.867,2.571-0.721,3.52c0.141,0.944,0.641,1.615,1.514,1.999
	c0.557,0.25,1.146,0.29,1.754,0.112c0.605-0.176,1.088-0.673,1.457-1.491l-2.52-1.122l1.137-2.547L221.326,114.949z"/>
<path fill="#010101" d="M238.336,118.521l-3.07-0.28c0.117-1.237-0.396-2.115-1.551-2.629c-1.244-0.553-2.045-0.42-2.408,0.4
	c-0.148,0.322-0.152,0.651-0.025,0.98c0.129,0.333,0.566,0.76,1.309,1.29c1.234,0.888,2.111,1.615,2.617,2.187
	c0.506,0.565,0.834,1.266,0.977,2.095c0.162,0.83,0.057,1.629-0.297,2.418c-0.545,1.233-1.488,2.087-2.814,2.574
	c-1.324,0.479-2.91,0.315-4.734-0.498c-1.371-0.606-2.402-1.446-3.074-2.511c-0.682-1.063-0.889-2.291-0.641-3.681l3.193,0.626
	c-0.234,1.416,0.389,2.455,1.869,3.117c0.715,0.322,1.316,0.416,1.797,0.292c0.473-0.128,0.803-0.387,0.973-0.782
	c0.186-0.393,0.158-0.78-0.057-1.141c-0.225-0.361-0.75-0.842-1.576-1.442c-1.541-1.117-2.531-2.148-2.982-3.093
	c-0.453-0.945-0.408-2.016,0.129-3.211c0.537-1.213,1.428-2.041,2.664-2.484c1.236-0.449,2.588-0.342,4.07,0.319
	C237.322,114.232,238.535,116.052,238.336,118.521"/>
<path fill="#010101" d="M240.328,132.404c-1.801-0.801-2.885-2.11-3.254-3.929c-0.373-1.818-0.121-3.704,0.748-5.66
	c0.891-1.987,2.135-3.425,3.723-4.312c1.586-0.885,3.305-0.917,5.16-0.094c1.859,0.832,2.951,2.168,3.271,4.013
	c0.314,1.844,0.064,3.682-0.754,5.512c-0.879,1.972-2.111,3.427-3.697,4.348C243.943,133.201,242.211,133.243,240.328,132.404
	 M245.518,121.004c-1.639-0.732-3.115,0.373-4.43,3.315c-1.309,2.945-1.146,4.786,0.496,5.518c1.588,0.712,3.041-0.408,4.35-3.349
	C247.25,123.544,247.111,121.714,245.518,121.004"/>
<path fill="#010101" d="M262.225,131.659l-3.373-1.253c0.814-1.942,0.504-3.234-0.918-3.87c-1.635-0.727-3.113,0.387-4.438,3.347
	c-0.758,1.71-1.053,2.971-0.883,3.775c0.178,0.81,0.662,1.39,1.465,1.748c1.291,0.574,2.465,0.069,3.518-1.521l2.949,1.544
	c-0.92,1.541-2.066,2.518-3.447,2.921c-1.369,0.407-2.775,0.283-4.215-0.357c-1.773-0.79-2.939-2.054-3.49-3.787
	c-0.547-1.744-0.338-3.707,0.643-5.9c0.918-2.057,2.195-3.503,3.855-4.338c1.654-0.831,3.412-0.834,5.266-0.009
	C262.369,125.395,263.393,127.958,262.225,131.659"/>
<polygon fill="#010101" points="268.809,128.514 262.734,142.136 259.605,140.744 265.684,127.122 "/>
<polygon fill="#010101" points="279.287,136.293 272.924,133.459 271.674,136.253 276.68,138.483 275.531,141.047 270.533,138.815 
	269.201,141.789 275.574,144.628 274.371,147.323 264.822,143.067 270.895,129.445 280.441,133.697 "/>
<polygon fill="#010101" points="290.191,138.044 288.99,140.737 285.682,139.264 280.811,150.192 277.635,148.778 282.508,137.852 
	279.182,136.367 280.377,133.673 "/>
<polygon fill="#010101" points="301.504,143.086 293.793,149.096 291.234,154.835 288.104,153.443 290.66,147.704 289.973,137.948 
	293.607,139.565 293.861,145.858 298.693,141.834 "/>
<path fill="#010101" d="M119.183,325.622c-0.723,0.793-1.602,1.138-2.632,1.03c-0.922-0.102-1.792-0.531-2.608-1.275
	c-0.525-0.486-0.938-1.108-1.234-1.857l1.514-1.649c-0.047,0.585-0.028,1.047,0.055,1.384c0.109,0.449,0.344,0.842,0.709,1.17
	c0.399,0.37,0.852,0.564,1.361,0.582c0.536,0.028,0.983-0.155,1.345-0.541c0.371-0.41,0.478-1.07,0.322-1.985l-0.472-2.52
	c-0.08-1.002,0.167-1.814,0.734-2.435c0.669-0.73,1.469-1.06,2.407-0.991c0.867,0.061,1.672,0.428,2.415,1.111
	c0.503,0.458,0.907,1.027,1.22,1.692l-1.396,1.524c-0.059-0.614-0.113-1.021-0.173-1.224c-0.111-0.376-0.338-0.722-0.675-1.03
	c-0.344-0.317-0.723-0.479-1.134-0.48c-0.433-0.015-0.8,0.151-1.109,0.488c-0.358,0.39-0.451,1.034-0.291,1.944l0.456,2.545
	C120.058,324.124,119.785,324.968,119.183,325.622"/>
<path fill="#010101" d="M130.341,336.096l-1.32,1.4c-1.385-0.431-2.482-0.992-3.296-1.686c-1.285-1.103-1.984-2.412-2.095-3.916
	c-0.113-1.504,0.382-2.896,1.483-4.177c1.181-1.375,2.581-2.116,4.202-2.232c1.619-0.113,3.121,0.416,4.488,1.595
	c0.702,0.602,1.346,1.365,1.936,2.285l-1.283,1.496c-0.404-1.256-0.978-2.211-1.728-2.862c-0.973-0.829-2.033-1.146-3.183-0.947
	c-1.072,0.178-2.034,0.762-2.888,1.76c-0.835,0.969-1.274,1.98-1.315,3.033c-0.053,1.146,0.395,2.125,1.342,2.938
	C127.542,335.521,128.761,335.959,130.341,336.096"/>
<path fill="#010101" d="M134.197,343.936l-1.652-1.947c0.94-0.456,1.777-1.004,2.508-1.62l3.932-3.354
	c0.984-0.838,1.768-1.676,2.336-2.507l1.663,1.947c-0.918,0.427-1.87,1.058-2.856,1.906l-3.867,3.292
	C135.484,342.311,134.798,343.071,134.197,343.936"/>
<path fill="#010101" d="M152.417,349.252l-1.852,0.602c-0.12-0.622-0.278-1.132-0.457-1.52c-0.146-0.307-0.425-0.758-0.835-1.352
	l-5.252,3.707c-1.367,0.968-2.34,1.815-2.914,2.539l-1.475-2.09c0.805-0.24,1.945-0.881,3.426-1.927l5.199-3.669
	c-0.529-0.657-0.932-1.127-1.207-1.429c-0.467-0.496-0.938-0.901-1.4-1.227l1.881-0.562L152.417,349.252z"/>
<path fill="#010101" d="M152.312,365.161l-2.402,0.548l-3.576-4.957c0.857-0.285,1.975-0.931,3.354-1.927l3.276-2.362
	c1.027-0.737,1.935-1.562,2.726-2.462l3.719,5.149l-2.03,0.371c-0.129-0.871-0.446-1.663-0.956-2.369
	c-0.065-0.088-0.235-0.308-0.506-0.648l-3.017,2.18l2.212,3.07l-2.135,0.216c-0.137-0.781-0.502-1.632-1.102-2.543l-3.25,2.343
	c0.883,1.061,1.442,1.7,1.667,1.921C150.887,364.292,151.562,364.784,152.312,365.161"/>
<path fill="#010101" d="M196.586,393.025l-1.254,2.117l-6.06-0.815c0.381-0.823,0.688-2.069,0.912-3.769l0.543-3.993
	c0.172-1.257,0.206-2.481,0.098-3.677l6.291,0.854l-1.126,1.724c-0.723-0.504-1.517-0.816-2.379-0.935
	c-0.106-0.016-0.378-0.044-0.815-0.087l-0.496,3.693l3.746,0.516l-1.312,1.693c-0.662-0.442-1.527-0.76-2.609-0.952l-0.535,3.968
	c1.378,0.092,2.225,0.128,2.543,0.112C194.979,393.463,195.799,393.312,196.586,393.025"/>
<path fill="#010101" d="M210.924,382.949l-0.381,1.908c-0.609-0.199-1.127-0.317-1.559-0.349c-0.33-0.027-0.865-0.008-1.58,0.058
	l0.631,6.396c0.158,1.67,0.42,2.934,0.766,3.788l-2.543,0.261c0.188-0.829,0.191-2.143,0.016-3.937l-0.625-6.329
	c-0.828,0.132-1.441,0.245-1.84,0.343c-0.664,0.158-1.246,0.357-1.756,0.609l0.438-1.916L210.924,382.949z"/>
<path fill="#010101" d="M246.465,368.017c0.832,0.671,1.24,1.524,1.203,2.558c-0.041,0.925-0.414,1.823-1.105,2.69
	c-0.443,0.557-1.037,1.011-1.77,1.356l-1.74-1.401c0.582,0.008,1.035-0.043,1.373-0.145c0.439-0.141,0.818-0.399,1.123-0.789
	c0.338-0.423,0.5-0.887,0.49-1.395c-0.01-0.54-0.225-0.979-0.635-1.306c-0.434-0.341-1.096-0.41-1.998-0.19l-2.486,0.644
	c-0.99,0.141-1.824-0.048-2.471-0.579c-0.777-0.614-1.16-1.391-1.152-2.335c0-0.865,0.316-1.692,0.951-2.482
	c0.42-0.529,0.953-0.973,1.604-1.328l1.607,1.293c-0.604,0.095-1.006,0.18-1.205,0.249c-0.369,0.141-0.699,0.388-0.979,0.744
	c-0.297,0.366-0.432,0.756-0.416,1.163c0.025,0.431,0.215,0.789,0.574,1.076c0.402,0.326,1.057,0.379,1.959,0.156l2.502-0.623
	C244.914,367.243,245.773,367.458,246.465,368.017"/>
<path fill="#010101" d="M247.996,350.888l1.242,1.491c-0.541,0.351-0.955,0.677-1.248,0.991c-0.236,0.249-0.555,0.67-0.951,1.271
	l5.369,3.534c1.4,0.918,2.543,1.517,3.43,1.785l-1.406,2.139c-0.521-0.666-1.541-1.497-3.051-2.49l-5.311-3.5
	c-0.418,0.73-0.715,1.281-0.891,1.646c-0.289,0.619-0.508,1.203-0.627,1.754l-1.215-1.545L247.996,350.888z"/>
<path fill="#010101" d="M265.68,345.226l-1.182,1.713c-1.799,0.426-4.074,0.646-6.834,0.663l1.322,0.915
	c1.076,0.743,2.146,1.324,3.229,1.741l-1.461,2.101c-0.539-0.689-1.406-1.447-2.602-2.274l-3.986-2.764
	c-0.811-0.558-1.771-1.067-2.906-1.529l0.723-1.042c0.924-1.332,1.744-2.231,2.465-2.704c1.121-0.737,2.258-0.71,3.393,0.077
	c1.09,0.757,1.479,1.936,1.146,3.539C261.051,345.755,263.279,345.609,265.68,345.226 M256.848,343.722
	c-1.141-0.79-2.289-0.478-3.434,0.938l3.832,2.652c0.369-0.687,0.553-1.321,0.537-1.909
	C257.758,344.701,257.449,344.142,256.848,343.722"/>
<path fill="#010101" d="M272.158,334.678l0.996,2.255l-4.193,4.446c-0.449-0.781-1.289-1.765-2.529-2.933l-2.934-2.769
	c-0.92-0.871-1.896-1.607-2.93-2.218l4.359-4.617l0.74,1.921c-0.832,0.289-1.545,0.754-2.139,1.386
	c-0.078,0.079-0.262,0.286-0.555,0.616l2.715,2.559l2.605-2.75l0.615,2.054c-0.742,0.279-1.51,0.797-2.301,1.559l2.912,2.755
	c0.875-1.068,1.406-1.739,1.576-1.999C271.578,336.238,271.939,335.49,272.158,334.678"/>
<path fill="#010101" d="M285.336,325.57l-1.686,1.538c-0.479-0.216-1.305-0.44-2.486-0.679l-6.996-1.396l2.855,3.137
	c1.029,1.125,1.943,1.942,2.773,2.449l-1.752,1.593c-0.494-0.933-1.223-1.921-2.186-2.981l-4.18-4.589l-2.154-0.284l1.996-1.814
	c0.588,0.2,1.414,0.4,2.475,0.626l8.033,1.685l-3.299-3.627c-1.064-1.163-2.031-2.03-2.91-2.591l1.75-1.598
	c0.592,1.049,1.371,2.102,2.344,3.16l2.92,3.199C283.697,324.344,284.525,325.07,285.336,325.57"/>
<path fill="#010101" d="M297.645,314.537l-1.475,1.335l-0.809-0.891c-0.164,0.838-0.361,1.48-0.582,1.927
	c-0.258,0.536-0.668,1.062-1.242,1.579c-1.115,1.012-2.322,1.236-3.627,0.674c-0.914-0.39-1.969-1.243-3.158-2.558
	c-0.221-0.239-0.506-0.57-0.879-0.996c-0.359-0.427-0.623-0.717-0.77-0.883c-0.74-0.822-1.566-1.541-2.48-2.158l1.898-1.713
	c0.453,0.906,1.08,1.793,1.875,2.671l1.902,2.099c1.893,2.095,3.537,2.511,4.941,1.244c1.322-1.191,1.221-2.631-0.301-4.31
	l-2.477-2.73c-0.736-0.815-1.557-1.528-2.459-2.13l1.893-1.72c0.381,0.816,0.961,1.654,1.746,2.524l2.594,2.86
	c0.912,1.012,1.441,1.585,1.58,1.723C296.459,313.729,297.068,314.212,297.645,314.537"/>
<path fill="#010101" d="M306.221,303.006l0.934,2.28l-4.32,4.331c-0.424-0.801-1.234-1.806-2.441-3.005l-2.855-2.848
	c-0.9-0.895-1.859-1.659-2.869-2.294l4.477-4.502l0.699,1.942c-0.84,0.272-1.564,0.714-2.184,1.327
	c-0.08,0.08-0.264,0.277-0.561,0.602l2.635,2.633l2.676-2.681l0.559,2.073c-0.75,0.254-1.529,0.756-2.338,1.501l2.84,2.828
	c0.9-1.047,1.441-1.701,1.625-1.957C305.596,304.55,305.973,303.806,306.221,303.006"/>
</svg>
